<?xml version="1.0" encoding="utf-8"?>
<!-- Generator: Adobe Illustrator 27.2.0, SVG Export Plug-In . SVG Version: 6.00 Build 0)  -->
<svg version="1.1" id="Layer_1" xmlns="http://www.w3.org/2000/svg" xmlns:xlink="http://www.w3.org/1999/xlink" x="0px" y="0px"
	 viewBox="0 0 400 300" style="enable-background:new 0 0 400 300;" xml:space="preserve">
<style type="text/css">
	.st0{fill:#0F0F0F;}
	.st1{font-family:'Gilroy-Bold';}
	.st2{font-size:14px;}
	.st3{fill:none;stroke:#2496F2;stroke-width:3.5;stroke-miterlimit:10;}
	.st4{fill:#2496F2;}
	.st5{fill:none;stroke:#FFFFFF;stroke-width:3;stroke-miterlimit:10;}
</style>
<text transform="matrix(1 0 0 1 117.7855 185.6885)"><tspan x="0" y="0" class="st0 st1 st2">Общественный совет</tspan><tspan x="-15.06" y="18" class="st0 st1 st2">по цифровому развитию</tspan><tspan x="-5.24" y="36" class="st0 st1 st2">Республики Ингушетия</tspan></text>
<path class="st3" d="M209.87,107.91c-2.07-1.18-4.49-1.79-7.05-1.62c-2.31,0.15-4.44,0.93-6.22,2.14l-4.86-5.86
	c-3.83,2.82-6.63,6.96-7.71,11.76l-8.01-1.19c1.99-10.06,9.4-18.36,19.29-21.41"/>
<path class="st3" d="M192.07,114.02c-0.71,1.72-1.05,3.63-0.92,5.62c0.14,2.11,0.8,4.07,1.84,5.75c1.03,1.67,2.44,3.07,4.09,4.09
	l-3.74,6.61c3.02,1.8,6.54,2.84,10.31,2.84c2.51,0,4.9-0.46,7.12-1.29l2.65,7.38c-2.31,0.85-4.77,1.42-7.34,1.64
	c-8.2,0.72-15.89-2.16-21.51-7.32"/>
<path class="st3" d="M214.29,125.45c-2.06,3.29-5.62,5.58-9.79,5.85"/>
<path class="st3" d="M206.68,121.79c-0.76,0.77-1.75,1.19-2.76,1.25c-1.17,0.07-2.36-0.34-3.26-1.22c-0.81-0.8-1.23-1.85-1.26-2.91
	c-0.03-1.12,0.38-2.25,1.23-3.11c0.57-0.58,1.27-0.95,2-1.14c0.8-0.2,1.64-0.16,2.42,0.11c0.58,0.2,1.13,0.53,1.59,1"/>
<path class="st3" d="M211.98,109.46c2.57,2.29,4.19,5.63,4.19,9.34h7.62c0-5.94-2.57-11.28-6.66-14.96l5.12-6.33
	c5.23,4.61,8.77,11.16,9.42,18.65c0.27,3.06,0.04,6.05-0.63,8.88"/>
<path class="st3" d="M193.06,135.46"/>
<circle class="st3" cx="203.65" cy="90.52" r="8.21"/>
<circle class="st3" cx="228.07" cy="132.81" r="8.21"/>
<circle class="st3" cx="179.29" cy="132.81" r="8.21"/>
<rect x="-456.86" class="st4" width="400" height="300"/>
<text transform="matrix(1 0 0 1 -339.2462 185.6885)"><tspan x="0" y="0" class="st2" style="fill:#FFFFFF; font-family:'Gilroy-Semibold';">Общественный совет</tspan><tspan x="-14.85" y="18" class="st2" style="fill:#FFFFFF; font-family:'Gilroy-Semibold';">по цифровому развитию</tspan><tspan x="-5.09" y="36" class="st2" style="fill:#FFFFFF; font-family:'Gilroy-Semibold';">Республики Ингушетия</tspan></text>
<path class="st5" d="M-246.99,107.91c-2.07-1.18-4.49-1.79-7.05-1.62c-2.31,0.15-4.44,0.93-6.22,2.14l-4.86-5.86
	c-3.83,2.82-6.63,6.96-7.71,11.76l-8.01-1.19c1.99-10.06,9.4-18.36,19.29-21.41"/>
<path class="st5" d="M-264.8,114.02c-0.71,1.72-1.05,3.63-0.92,5.62c0.14,2.11,0.8,4.07,1.84,5.75c1.03,1.67,2.44,3.07,4.09,4.09
	l-3.74,6.61c3.02,1.8,6.54,2.84,10.31,2.84c2.51,0,4.9-0.46,7.12-1.29l2.65,7.38c-2.31,0.85-4.77,1.42-7.34,1.64
	c-8.2,0.72-15.89-2.16-21.51-7.32"/>
<path class="st5" d="M-242.58,125.45c-2.06,3.29-5.62,5.58-9.79,5.85"/>
<path class="st5" d="M-250.18,121.79c-0.76,0.77-1.75,1.19-2.76,1.25c-1.17,0.07-2.36-0.34-3.26-1.22c-0.81-0.8-1.23-1.85-1.26-2.91
	c-0.03-1.12,0.38-2.25,1.23-3.11c0.57-0.58,1.27-0.95,2-1.14c0.8-0.2,1.64-0.16,2.42,0.11c0.58,0.2,1.13,0.53,1.59,1"/>
<path class="st5" d="M-244.88,109.46c2.57,2.29,4.19,5.63,4.19,9.34h7.62c0-5.94-2.57-11.28-6.66-14.96l5.12-6.33
	c5.23,4.61,8.77,11.16,9.42,18.65c0.27,3.06,0.04,6.05-0.63,8.88"/>
<path class="st5" d="M-263.81,135.46"/>
<circle class="st5" cx="-253.22" cy="90.52" r="8.21"/>
<circle class="st5" cx="-228.8" cy="132.81" r="8.21"/>
<circle class="st5" cx="-277.57" cy="132.81" r="8.21"/>
</svg>
